<svg width="64" height="64" viewBox="0 0 64 64" fill="none" xmlns="http://www.w3.org/2000/svg">
<path fill-rule="evenodd" clip-rule="evenodd" d="M32 14L36 20H28L32 14ZM25 32L17 22H1L9 32H10H13H25ZM24.5 33H23.382L20.382 39H10.618L13.618 33H12.5L9.5 39L9 40H10.118H21L24.5 33ZM26.1667 33L28 44L31.3991 49.0986L32 50L32.6009 49.0986L36 44L37.8333 33H36.8195L35.0489 43.6239L32 48.1972L28.9511 43.6239L27.1805 33H26.1667ZM38 32L36 26H28L26 32H38ZM39.5 33L43 40H53.882H55L54.5 39L51.5 33H50.382L53.382 39H43.618L40.618 33H39.5ZM53 32H55L63 22H47L39 32H51H53Z" fill="white"/>
</svg>
